<svg xmlns="http://www.w3.org/2000/svg" viewBox="0 0 2048 512"><style>@keyframes logo-drop{0%{transform:translateY(-2em);opacity:0}}@keyframes logo-expand{0%{transform:scale(.9);opacity:0}}@keyframes logo-text{0%{transform:translateX(-2em);opacity:0}}#logo-plant{animation:logo-drop .5s .5s both}#logo-sun{transform-origin:12.5% 37.9%;animation:logo-expand .5s 1s both}#logo-text>path{animation:logo-text .5s 1.5s both}#logo-text>path:nth-child(2){animation-delay:1.6s}#logo-text>path:nth-child(3){animation-delay:1.7s}#logo-text>path:nth-child(4){animation-delay:1.8s}#logo-text>path:nth-child(5){animation-delay:1.9s}#logo-text>path:nth-child(6){animation-delay:2s}#logo-text>path:nth-child(7){animation-delay:2.1s}#logo-text>path:nth-child(8){animation-delay:2.2s}#logo-text>path:nth-child(9){animation-delay:2.3s}#logo-text>path:nth-child(10){animation-delay:2.4s}#logo-text>path:nth-child(11){animation-delay:2.5s}#logo-text>path:nth-child(12){animation-delay:2.6s}</style><g id="logo-sun" fill="#ffa432"><path d="M285.9,100.9,230,4.2a8.3,8.3,0,0,0-14.4,0L159.8,101a8.2,8.2,0,0,0,10.1,11.8,154.6,154.6,0,0,1,53-9.4,149.9,149.9,0,0,1,52.9,9.4A8.3,8.3,0,0,0,285.9,100.9Z"/><path d="M437.4,123.8H325.7a8.3,8.3,0,0,0-5.2,14.7,152.1,152.1,0,0,1,52.9,91.7,8.3,8.3,0,0,0,15.4,2.8l55.8-96.8A8.3,8.3,0,0,0,437.4,123.8Z"/><path d="M373.4,281.7a153.3,153.3,0,0,1-52.9,91.7,8.3,8.3,0,0,0,5.2,14.7H437.4a8.4,8.4,0,0,0,7.2-12.5l-55.8-96.7A8.3,8.3,0,0,0,373.4,281.7Z"/><path d="M72.3,230.3a153,153,0,0,1,53-91.7,8.3,8.3,0,0,0-5.2-14.7H8.3a8.3,8.3,0,0,0-7.1,12.5L57,233.2A8.3,8.3,0,0,0,72.3,230.3Z"/><path d="M8.3,388.1H120.1a8.3,8.3,0,0,0,5.2-14.7,152.3,152.3,0,0,1-53-91.7A8.3,8.3,0,0,0,57,278.9L1.2,375.7A8.2,8.2,0,0,0,8.3,388.1Z"/></g><g fill="#795548"><path d="M269.4,439.8l10.7-18.6a8.3,8.3,0,0,0-7.2-12.5H172.7a8.3,8.3,0,0,0-7.2,12.5l10.8,18.6a8.2,8.2,0,0,0,7.1,4.2h78.7A8.3,8.3,0,0,0,269.4,439.8Z"/><path d="M197.8,477l17.8,30.9a8.3,8.3,0,0,0,14.4,0L247.9,477a8.4,8.4,0,0,0-7.2-12.5H204.9A8.3,8.3,0,0,0,197.8,477Z"/></g><g id="logo-plant"><path d="M231,239.4v69.8a74.7,74.7,0,0,1,8-6.4,32.8,32.8,0,0,1-2-10c-.5-11.9,5.2-24.1,17.2-36a91.5,91.5,0,0,1,63.9-26.7c4,0,6.3.3,6.7.3a8,8,0,0,1,6.8,6.9c.2,1.6,4.7,39.4-26.4,70.5-11.5,11.5-23,17.3-34.5,17.3h0a31.9,31.9,0,0,1-22.6-9.1c-10.5,7.3-16.5,15.9-17.2,24.5v39.7a8,8,0,0,1-16,0V354.5c0-.3-.1-.7-.1-1V342c0-9.1-6.2-18.3-17.2-26a32.6,32.6,0,0,1-22.7,9.1h0c-11.4,0-23-5.8-34.5-17.3-31.1-31.1-26.6-69-26.4-70.5a8,8,0,0,1,6.9-6.9c.3,0,2.6-.3,6.6-.3a91.3,91.3,0,0,1,63.9,26.7c12,12,17.7,24.1,17.2,36a32.8,32.8,0,0,1-2,10,77.6,77.6,0,0,1,8.3,6.6v-70Z" fill="#55ac69"/><path d="M260.5,175.4a8,8,0,0,1,1.6,15.9V213a26.5,26.5,0,0,1-26.4,26.4H210.1A26.5,26.5,0,0,1,183.6,213V191.3a8,8,0,0,1,1.6-15.9Z" fill="#795548"/><g fill="#ffa432"><path d="M233.4,175.4V155a8,8,0,0,1,16,0v20.4Z"/><path d="M196.3,175.4V155a8,8,0,0,1,16,0v20.4Z"/></g></g><g id="logo-text" fill="#795548"><path d="M576.6,230.4c-1.4-9-4-16.5-7.7-22.5a36.5,36.5,0,0,0-14-13.6c-5.7-3.1-12.4-4.5-19.9-4.4a30.4,30.4,0,0,0-18.2,5.8c-5.2,3.9-7.8,8.8-7.8,14.9a20.9,20.9,0,0,0,4.2,13c2.8,3.7,7.1,7.2,12.9,10.4A235,235,0,0,0,548,244.3a203.8,203.8,0,0,1,18.8,8.5,99.8,99.8,0,0,1,17.8,11.4,53.8,53.8,0,0,1,13.2,15.4c3.4,5.8,5.1,12.7,5.1,20.6a43.2,43.2,0,0,1-7.7,25.2c-5.2,7.4-12.3,13.1-21.6,17.2s-20,6.2-32.3,6.2a81,81,0,0,1-20.9-3,88.1,88.1,0,0,1-21-8.8l.7,10.1H481.6V290.8h15.9c2.2,13.5,7.4,23.6,15.5,30.4s17.8,10.2,29,10.2a33.9,33.9,0,0,0,15.1-3.1,25.6,25.6,0,0,0,10.2-8.3,19.1,19.1,0,0,0,3.6-11.2,18.4,18.4,0,0,0-5.9-13.9,51.5,51.5,0,0,0-14.7-9.4c-5.9-2.6-11.8-5.1-17.9-7.5q-11.5-4.8-21.6-10.2a81.1,81.1,0,0,1-17.4-12.4,47.7,47.7,0,0,1-15.7-36.8,46,46,0,0,1,2.9-15.5,42.9,42.9,0,0,1,9.4-15,48.9,48.9,0,0,1,17.3-11.2c7.3-2.8,16.2-4.3,26.7-4.3a87.4,87.4,0,0,1,21.1,2.9,56.8,56.8,0,0,1,19.6,8.7l-.9-9.9h18.7v56.1Z"/><path d="M669.1,348.8c-9.7,0-17.4-1.9-23.3-5.6s-10.1-9.4-12.7-17.3-4-18-4-30.3V267.9c0-2.9.1-6.2.2-10s.4-7.4.5-10.9c-2.5.1-5.6.3-9,.3s-6.1.2-7.8.4V229.4h2.4c9.9,0,17.8-.8,23.6-2.4s9.4-3.2,11-4.8h13.3v73.6c0,10.5,1.3,18.2,4.1,23.3s7,7.5,13,7.5a25.6,25.6,0,0,0,12.6-3.5,41.5,41.5,0,0,0,10.5-8V267.9c0-2.9,0-6.2.2-10s.4-7.4.7-10.9c-2.5.1-5.5.3-9,.3s-6.1.2-7.8.4V229.4h5.8a70.3,70.3,0,0,0,19.9-2.5c5.8-1.7,9.5-3.3,11.1-4.7h13.2v84c0,2.2,0,5.4-.2,9.5s-.4,8-.7,11.7a54.8,54.8,0,0,1,8.5-.6l7.1-.2v18.3H706.6l-.6-6.2c-.2-2.1-.5-4.2-.8-6.3a122.2,122.2,0,0,1-16.1,11.3C683.5,347.1,676.8,348.8,669.1,348.8Z"/><path d="M768.4,344.9V329.3c4.5,0,7.8-.9,9.8-2.7a12,12,0,0,0,3.8-7.5,63.5,63.5,0,0,0,.9-11.2V244.3l-17.6.3v-20h17.6c.9-22.1,6.1-37.9,15.4-47.3s23.3-14.1,42.1-14.1c14,0,25.1,1.7,33.5,5.1s14.3,7.2,18,11.7,5.5,8.1,5.3,11.1a19.6,19.6,0,0,1-3.6,10.8c-2.4,3.6-6.1,5.4-11.1,5.6a14.4,14.4,0,0,1-11.1-4,14.3,14.3,0,0,1-4.3-10.4,12.2,12.2,0,0,1,.3-2.6c.1-.8.3-1.7.4-2.5s-2.7-2.3-6.1-4.4-8.9-3.3-16.5-3.3-15.5,1.9-19.6,5.7a24.6,24.6,0,0,0-7.7,14.4,109.5,109.5,0,0,0-1.6,18.4v5.8H858c7,0,13-.2,18-.5s8-.9,9.2-1.9h13v84c0,2.2-.1,5.4-.3,9.5s-.4,8-.7,11.7a59.4,59.4,0,0,1,8.7-.6l6.9-.2v18.3h-63V329.3c4.5,0,7.7-.9,9.7-2.7a12,12,0,0,0,3.8-7.5,93.3,93.3,0,0,0,.7-11.2V263.3c0-2.8.1-6.2.2-9.9s.4-7.5.7-11l-48.3,1.2.2,62.1c0,2.2-.1,5.5-.2,9.7s-.4,8.3-.7,12a63.6,63.6,0,0,1,9.2-.6l7.6-.2v18.3Z"/><path d="M985.3,348.8a61.7,61.7,0,0,1-29.6-7.2,55.1,55.1,0,0,1-21.6-21c-5.3-9.1-8-20.2-8-33.2a72.7,72.7,0,0,1,4.5-25.7,67,67,0,0,1,12.9-21.2A62.2,62.2,0,0,1,963.3,226a59.7,59.7,0,0,1,25.3-5.3c10.3,0,18.9,1.6,25.7,4.7s11.9,7.3,15.4,12.3a28.3,28.3,0,0,1,5.1,16,19.6,19.6,0,0,1-4.2,12.4c-2.8,3.6-6.7,5.5-11.9,5.7s-10.3-1.6-12.7-5.2a19,19,0,0,1-3.6-10.5,22.6,22.6,0,0,1,.7-5.2,21.7,21.7,0,0,1,2.1-5.4,11.2,11.2,0,0,0-5-5.3,25.2,25.2,0,0,0-6.9-2.2,19.5,19.5,0,0,0-5.6-.4c-7.7.5-14.1,4.3-19,11.5s-7.5,17.7-7.5,31.3a81.1,81.1,0,0,0,3,22.5,37.4,37.4,0,0,0,10,17.2c4.7,4.5,10.9,6.9,18.8,7.3a40.2,40.2,0,0,0,19.7-4.9,49.1,49.1,0,0,0,16.4-13.7l11,10.9c-5.7,8-11.7,14.1-18,18.2a58.9,58.9,0,0,1-18.7,8.6A76.1,76.1,0,0,1,985.3,348.8Z"/><path d="M1053.1,329.3c4.5,0,7.7-.9,9.7-2.7a13,13,0,0,0,3.7-7.5,64.1,64.1,0,0,0,.8-11.2v-40c0-2.9.1-6.2.3-10s.4-7.4.7-10.9c-2.6.1-5.6.3-9,.3s-6.1.2-7.8.4V229.4a123.9,123.9,0,0,0,18.7-1.2,64.6,64.6,0,0,0,12.2-2.9,20.9,20.9,0,0,0,6.1-3.1h13v84c0,2.2-.1,5.4-.2,9.5s-.4,8-.8,11.7a57.1,57.1,0,0,1,8.6-.6l7.1-.2v18.3h-63.1Zm30.1-126.1a17.6,17.6,0,0,1-13.5-5.8,20.2,20.2,0,0,1-5.3-14,19.3,19.3,0,0,1,5.6-13.9,17.3,17.3,0,0,1,13-5.8,16.6,16.6,0,0,1,12.9,5.8,20.2,20.2,0,0,1,5.1,13.9,21.2,21.2,0,0,1-4.8,14C1093,201.3,1088.7,203.2,1083.2,203.2Z"/><path d="M1188.9,348.8c-11.7,0-22.1-2.6-31.1-7.8a54,54,0,0,1-20.9-22.2c-5-9.5-7.5-20.8-7.5-33.8a68.3,68.3,0,0,1,7.5-31.5,61.6,61.6,0,0,1,21-23.7c9.1-6,19.7-9.1,31.7-9.1a72.7,72.7,0,0,1,19.7,2.8,46.8,46.8,0,0,1,17.5,9.5c5.2,4.5,9.4,10.6,12.5,18.3s4.6,17.3,4.4,28.9l-78.9,1.4A80.2,80.2,0,0,0,1168,305a33.1,33.1,0,0,0,10.8,16.3c4.9,4.1,11.6,6.1,19.9,6.1a43.4,43.4,0,0,0,11-1.7,49,49,0,0,0,24.4-16.4l10.8,10.1c-5.7,8.2-11.9,14.4-18.5,18.7a60.5,60.5,0,0,1-19.6,8.5A80.1,80.1,0,0,1,1188.9,348.8Zm-22.7-84h44.3c-.1-6.8-1.1-12.1-2.7-16a18.4,18.4,0,0,0-6.9-8.6,19.7,19.7,0,0,0-10.1-2.6c-7.1,0-12.6,2.5-16.6,7.6S1167.5,256.8,1166.2,264.8Z"/><path d="M1261.3,344.9V329.3q6.8,0,9.6-2.7c2-1.7,3.2-4.3,3.8-7.5a75.5,75.5,0,0,0,.8-11.2V267.4c0-2.9.1-6.1.2-9.7s.4-7.2.8-10.7c-2.6.1-5.6.3-9.1.3s-6,.2-7.8.4V229.4a124.4,124.4,0,0,0,18.8-1.2,63.3,63.3,0,0,0,12.1-2.9c3-1.1,5.1-2.1,6.2-3.1h11.8a38.5,38.5,0,0,1,.5,4.6,24.4,24.4,0,0,0,.1,2.7,41.1,41.1,0,0,0,.8,4.7,59.6,59.6,0,0,1,11.1-6.8,92.3,92.3,0,0,1,12.5-4.9,41.1,41.1,0,0,1,11.1-1.8c14.7,0,25.2,4.3,31.4,12.7s9.2,21.9,9.2,40.5v32.3c0,2.2,0,5.4-.2,9.5s-.4,8-.7,11.7a59,59,0,0,1,8.6-.6l7-.2v18.3h-63V329.3c4.5,0,7.7-.9,9.7-2.7a12.6,12.6,0,0,0,3.9-7.5,75.5,75.5,0,0,0,.8-11.2l-.2-34.2c0-10.4-1.5-18.2-4.5-23.2s-8-7.6-15-7.6a29.7,29.7,0,0,0-11.9,2.6,38.9,38.9,0,0,0-10,6.3v54.4c0,2.2-.1,5.4-.3,9.5s-.4,8-.7,11.7a56.1,56.1,0,0,1,8.6-.6l7.1-.2v18.3Z"/><path d="M1460.6,348.8a57.5,57.5,0,0,1-13.9-1.7,29.2,29.2,0,0,1-12-6.4c-3.6-3.1-6.5-7.7-8.6-13.8s-3.1-14.2-3.1-24.3l.5-58h-16.4v-20a26.6,26.6,0,0,0,14.5-5.1,43.2,43.2,0,0,0,11.9-12.5,45.8,45.8,0,0,0,6.6-16.1h17.8l-.2,33.7h30.5v18.5l-30.5.7-.3,59.2a57.8,57.8,0,0,0,1.1,11,18,18,0,0,0,4.2,8.9c2.1,2.3,5.2,3.5,9.2,3.5,2.2,0,5.3-.8,9.2-2.4s8.2-5.6,12.7-12l11.5,10.8c-4.3,6.4-8.8,11.4-13.5,14.9a54.6,54.6,0,0,1-13.3,7.7,45.2,45.2,0,0,1-11.2,2.9Z"/><path d="M1512.3,329.3q6.8,0,9.6-2.7c2-1.7,3.2-4.3,3.8-7.5a75.5,75.5,0,0,0,.8-11.2v-40c0-2.9.1-6.2.2-10s.4-7.4.8-10.9c-2.6.1-5.6.3-9.1.3s-6,.2-7.8.4V229.4a124.4,124.4,0,0,0,18.8-1.2,63.3,63.3,0,0,0,12.1-2.9c3-1.1,5.1-2.1,6.2-3.1h13v84c0,2.2-.1,5.4-.3,9.5s-.4,8-.7,11.7a56.1,56.1,0,0,1,8.6-.6l7.1-.2v18.3h-63.1Zm30.1-126.1a17.3,17.3,0,0,1-13.5-5.8,20.2,20.2,0,0,1-5.3-14,19.3,19.3,0,0,1,5.6-13.9,17.1,17.1,0,0,1,12.9-5.8,16.3,16.3,0,0,1,12.9,5.8,19.8,19.8,0,0,1,5.2,13.9,21.2,21.2,0,0,1-4.8,14C1552.2,201.3,1547.8,203.2,1542.4,203.2Z"/><path d="M1646.3,348.8a76.2,76.2,0,0,1-20.2-2.7c-6.5-1.7-11.7-4-15.4-6.7l.5,7.2h-18.3l-.9-41.4h15.6a24.4,24.4,0,0,0,5.8,13.3,35.3,35.3,0,0,0,13.2,9.5,47,47,0,0,0,18.3,3.4,25.4,25.4,0,0,0,7.8-1.2,14.6,14.6,0,0,0,6.3-3.9,9.9,9.9,0,0,0,2.5-6.9,9.6,9.6,0,0,0-3.2-7.4,34.7,34.7,0,0,0-9.4-5.6l-15.3-6q-7.5-2.8-15-6a69.5,69.5,0,0,1-14-7.6,33.8,33.8,0,0,1-10.2-11.1q-3.9-6.6-3.9-16.2a38.6,38.6,0,0,1,10.8-26.4,41.7,41.7,0,0,1,14.1-9,56.6,56.6,0,0,1,20.4-3.4,61.8,61.8,0,0,1,14.8,2.1,41.8,41.8,0,0,1,14,6.1v-7h18.3v42.6h-15.6a33.3,33.3,0,0,0-5.9-14.4,30.4,30.4,0,0,0-11.4-9.3,38,38,0,0,0-15.7-3.2,21.4,21.4,0,0,0-10.9,2.9c-3.3,1.9-5,5.2-5,9.8a10.8,10.8,0,0,0,3.9,8.8,29.2,29.2,0,0,0,10.6,5.4l14.9,5.1a115.4,115.4,0,0,1,21.8,9.6,47.8,47.8,0,0,1,15,13.4c3.7,5.2,5.5,11.6,5.5,19.1s-2,15.3-6.2,20.7a37.9,37.9,0,0,1-16.3,12.3A55.7,55.7,0,0,1,1646.3,348.8Z"/><path d="M1707.7,344.9V329.3q6.8,0,9.6-2.7c2-1.7,3.2-4.3,3.8-7.5a75.5,75.5,0,0,0,.8-11.2V267.4c0-2.9.1-6.1.3-9.7s.3-7.2.7-10.7c-2.6.1-5.6.3-9.1.3s-6,.2-7.8.4V229.4a124.4,124.4,0,0,0,18.8-1.2,66.6,66.6,0,0,0,12.2-2.9,20.9,20.9,0,0,0,6.1-3.1h11.8a43.1,43.1,0,0,1,.6,6q.1,3.6.3,6a73.1,73.1,0,0,1,17.7-9.8,49.1,49.1,0,0,1,18-3.7c7.3,0,13.4,1.4,18.3,4a29.3,29.3,0,0,1,11.5,11.9,75.9,75.9,0,0,1,19.1-11.5,52.6,52.6,0,0,1,20.1-4.4c13,0,22.9,3.8,29.5,11.2s10,20.5,10,38.9v35.4c0,2.2-.1,5.4-.2,9.5s-.4,8-.8,11.7a56.1,56.1,0,0,1,8.6-.6l7.1-.2v18.3h-60.9V329.3q5.5,0,8.1-2.7a14,14,0,0,0,3.2-7.5,76.4,76.4,0,0,0,.7-11.2V271c-.1-10.4-1.9-17.6-5.2-21.6a16.8,16.8,0,0,0-13.1-6.3,26.7,26.7,0,0,0-11.6,2.2,45.2,45.2,0,0,0-9.8,5.8,63.5,63.5,0,0,1,1.7,10.6c.3,3.8.5,7.9.5,12.2v32.3c0,2.2-.1,5.4-.3,9.5s-.4,8-.7,11.7a55.3,55.3,0,0,1,8.4-.6l7.3-.2v18.3h-62.1V329.3c4.1,0,7.2-.9,9-2.7a12.9,12.9,0,0,0,3.5-7.5,76.4,76.4,0,0,0,.7-11.2l-.2-37.6c0-10.4-1.6-17.5-4.6-21.4a16.1,16.1,0,0,0-12.8-6,25.2,25.2,0,0,0-11.2,2.6,46.7,46.7,0,0,0-9.2,6.3v54.4c0,2.2-.1,5.4-.3,9.5s-.4,8-.7,11.7a51.9,51.9,0,0,1,8-.6l6.5-.2v18.3Z"/><path d="M1988.1,348.8a64.9,64.9,0,0,1-31.3-7.5,55,55,0,0,1-22-21.3c-5.4-9.2-8.1-20.1-8.1-32.6s2.8-25,8.3-35a61,61,0,0,1,22.2-23.4,57.6,57.6,0,0,1,30.2-8.3c11.5,0,21.9,2.5,31,7.5a55.5,55.5,0,0,1,21.7,21.3c5.3,9.2,7.9,20.3,7.9,33.1s-2.6,25.2-7.7,35.1a55.6,55.6,0,0,1-21.2,23C2010.1,346.1,1999.8,348.8,1988.1,348.8Zm.9-17.1c6.5-.2,11.3-2.4,14.6-6.8a38.5,38.5,0,0,0,6.9-16.3,112,112,0,0,0,1.9-20,138.7,138.7,0,0,0-1.3-18,71.9,71.9,0,0,0-4.3-16.6,31.7,31.7,0,0,0-7.8-12.1,16.3,16.3,0,0,0-12.1-4.3c-6.3.2-11.2,2.4-14.8,6.7a39.2,39.2,0,0,0-7.7,16.3,84.2,84.2,0,0,0-2.3,20.3,114,114,0,0,0,2.6,24.1c1.8,7.8,4.6,14.3,8.6,19.3A18.4,18.4,0,0,0,1989,331.7Z"/></g></svg>