<svg xmlns="http://www.w3.org/2000/svg" viewBox="250 60 500 500"><style>@keyframes icon-drop{0%{transform:translateY(-2em);opacity:0}}@keyframes icon-expand{0%{transform:scale(.9);opacity:0}}#icon-plant{animation:icon-drop .5s .5s both}#icon-sun{transform-origin:100% 37.9%;animation:icon-expand .5s 1s both}</style><g id="icon-sun" fill="#FFA432"><path d="M561.6,158.5L507,64.1c-3.1-5.4-10.9-5.4-14.1,0l-54.5,94.5c-3.8,6.6,2.8,14.3,9.9,11.6 c16.1-5.9,33.5-9.2,51.7-9.2c18.2-0.1,35.6,3.2,51.7,9.2C558.8,172.8,565.3,165.1,561.6,158.5z"/><path d="M709.5,180.9H600.4c-7.6,0-11,9.5-5.1,14.4c26.8,22.3,45.7,53.7,51.7,89.5c1.3,7.5,11.2,9.3,15,2.7 l54.5-94.5C719.7,187.7,715.8,180.9,709.5,180.9z"/><path d="M647,335.1c-6.1,35.8-25,67.3-51.7,89.5c-5.9,4.9-2.5,14.4,5.1,14.4h109.1c6.2,0,10.2-6.8,7-12.2 L662,332.4C658.2,325.8,648.3,327.6,647,335.1z"/><path d="M353,284.9c6.1-35.8,25-67.3,51.7-89.5c5.9-4.9,2.5-14.4-5.1-14.4H290.5c-6.2,0-10.2,6.8-7,12.2 l54.5,94.5C341.8,294.2,351.7,292.4,353,284.9z"/><path d="M290.5,439h109.1c7.6,0,11-9.5,5.1-14.4c-26.8-22.3-45.7-53.7-51.7-89.5c-1.3-7.5-11.2-9.3-15-2.7 l-54.5,94.5C280.3,432.3,284.2,439,290.5,439z"/></g><g fill="#795548"><path d="M545.4,489.5l10.5-18.2c3.1-5.4-0.8-12.2-7-12.2H451c-6.3,0-10.2,6.8-7,12.2l10.5,18.2 c1.5,2.5,4.1,4.1,7,4.1h76.8C541.3,493.6,544,492,545.4,489.5z"/><path d="M475.5,525.8l17.4,30.2c3.1,5.4,10.9,5.4,14.1,0l17.4-30.2c3.1-5.4-0.8-12.2-7-12.2h-34.9 C476.3,513.6,472.4,520.4,475.5,525.8z"/></g><g id="icon-plant"><path fill="#55AC69" d="M507.9,293.8V362c2.4-2.2,5-4.3,7.9-6.3c-1.1-2.8-1.8-6.1-2-9.8c-0.5-11.6,5.1-23.5,16.8-35.1 c23.6-23.6,51.5-26.1,62.4-26.1c3.9,0,6.2,0.3,6.5,0.3c3.5,0.5,6.3,3.2,6.7,6.7c0.2,1.6,4.6,38.5-25.8,68.9 c-11.2,11.2-22.5,16.9-33.7,16.9c0,0,0,0,0,0c-11.5,0-19.1-5.9-22.1-8.9c-10.2,7.1-16.1,15.5-16.8,23.9v38.8 c0,4.3-3.5,7.8-7.8,7.8s-7.8-3.5-7.8-7.8v-25.1c0-0.3-0.1-0.7-0.1-1V394c0-8.9-6-17.9-16.8-25.4c-3.1,3-10.6,8.9-22.1,8.9 c0,0,0,0,0,0c-11.2,0-22.5-5.7-33.7-16.9c-30.4-30.4-26-67.4-25.8-68.9c0.5-3.5,3.2-6.3,6.7-6.7c0.3,0,2.6-0.3,6.5-0.3 c10.9,0,38.8,2.5,62.4,26.1c11.7,11.7,17.3,23.5,16.8,35.1c-0.2,3.7-0.9,7-2,9.8c2.9,2,5.6,4.2,8.1,6.4v-68.3L507.9,293.8z"/><path fill="#795548" d="M536.8,231.3c4.3,0,7.8,3.5,7.8,7.8c0,3.8-2.7,7-6.3,7.7V268c0,14.2-11.6,25.8-25.8,25.8l-25,0 c-14.2,0-25.8-11.6-25.8-25.8v-21.2c-3.6-0.7-6.3-3.9-6.3-7.7c0-4.3,3.5-7.8,7.8-7.8H536.8z"/><g fill="#FFA432"><path d="M510.3,231.3v-19.9c0-4.3,3.5-7.8,7.8-7.8c4.3,0,7.8,3.5,7.8,7.8v19.9H510.3z"/><path d="M474.1,231.3v-19.9c0-4.3,3.5-7.8,7.8-7.8s7.8,3.5,7.8,7.8v19.9H474.1z"/></g></g></svg>